<?xml version="1.0" encoding="utf-8"?>
<!-- Generator: Adobe Illustrator 26.0.1, SVG Export Plug-In . SVG Version: 6.00 Build 0)  -->
<svg version="1.1" id="Layer_1" xmlns="http://www.w3.org/2000/svg" xmlns:xlink="http://www.w3.org/1999/xlink" x="0px" y="0px"
	 viewBox="0 0 504 124.3" style="enable-background:new 0 0 504 124.3;" xml:space="preserve">
<style type="text/css">
	.st0{fill:#FFFFFF;}
</style>
<g>
	<g>
		<path class="st0" d="M66.4,0C60.8,3.8,56,5,51.1,5c-4.9,0-9.9-1.3-15.7-2.5C31.1,1.5,27,0.9,23.1,0.9C11.5,0.9,2.4,6.3,0,24.3
			C5.7,20.4,12.2,19,16.9,19c1.9,0,3.6,0.2,4.9,0.6c-6,9.1-9.7,14.8-4.8,33.4c1.4,5.3,3.6,12.1-2.9,20c0.7,0,1.4,0.1,2.1,0.1
			c11,0,24.5-5.6,21.1-27.8c1.4-1.2,3.1-1.8,4.8-1.8c2.3,0,4.6,1,6.2,2.4l5.9-13.2c-2.5-2.1-5.2-3-7.9-3c-3.7,0-7.5,1.8-11.1,4.9
			c-1.9-5.1-2.3-10.5,0.9-13.9c2.5,0.3,5,0.5,7.4,0.5C56.4,21.3,66.5,15.9,66.4,0"/>
		<path class="st0" d="M85.1,13.6l-20,7.1c6.2,3.9,5.5,6.9,5.3,18.5c-0.2,11.8-0.9,16.3,7.1,20.6l18.9-6.7c-7.4-3.9-5.9-11-5.7-21.3
			C90.8,21.3,90.5,17.9,85.1,13.6"/>
		<path class="st0" d="M121.3,13.6l-19.1,7.1c6.2,3.9,5.5,6.9,5.3,18.5c-0.2,11.8-0.9,16.3,7.1,20.6l17.9-6.7
			c-8-2.9-6-11.4-5.8-20.7l4.3-1.4l6,9l15.2-8.7l-10.1-17L126.3,21C125.6,18,124.2,15.9,121.3,13.6"/>
		<path class="st0" d="M194,14.2c-9,0-31.9,3.2-35.7,18.7c-3.5,14.3,8,27.6,26.8,27.6c4.6,0,9.7-0.8,15.1-2.6l8-13.4
			c-3,2-9.4,3.9-15.2,3.9c-4,0-7.7-1-9.6-3.5l26.3-12l-15.3-18.7C194.3,14.2,194.1,14.2,194,14.2 M177.4,38.4
			c-2.6-5.6-0.8-11.4,4-12.8l6.5,7.8L177.4,38.4z"/>
		<path class="st0" d="M244,13.9l-20.5,12.1c-3.4,2-8.6,5.3,0.7,11l17.3,10.6c3.3,2.5,2,5.2-0.4,5.2c-0.7,0-1.5-0.2-2.2-0.7
			l-13.7-8.2l-5.9,5.3l23.4,13.3l21.2-11.7c4.4-2.7,6.8-7.7-0.8-11.9l-16.5-10.2c-3.3-2.4-1.7-4.9,0.4-4.9c0.6,0,1.2,0.2,1.7,0.6
			l12.6,7.3l5.6-5.1L244,13.9z"/>
		<path class="st0" d="M300.4,4.8l-29.7,21.9h10.1v21.4c0.3,5.6,1.4,9,6.5,11.8l19.8-7.3c-4.6-2.5-6.7-4-6.7-9.4V26.7h11.3V15.8
			h-11.3V4.8z"/>
		<path class="st0" d="M346.9,13.5c-26,7.1-29.4,15-28,25.1c1.7,12.2,12.5,18.9,29.5,22.1c19.3-7.1,25.6-12.2,24.9-25.8
			C372.7,22.8,356.8,16.9,346.9,13.5 M350.9,48.3c-9-1.1-15.1-15.7-9.1-24C353.2,28.6,355.1,42.2,350.9,48.3"/>
		<path class="st0" d="M401.4,14.4l-19.1,7.1c6.2,3.9,5.8,6.9,5.6,18.5c-0.2,11.8-1,16.3,5.6,20.4L412,54c-2.9-1.8-4.8-2.8-4.8-7.6
			V30.3l6.7-2.1c2.2,0.9,4.5,3.1,4.5,8.7v13c0,4.8,1.4,7.7,6.4,10.7l18.6-6.7c-4.2-1.5-5.9-3.6-5.9-8.1V30.4l-0.1-0.3
			c0-7.2-4.4-14.9-11.5-14.9c-1.4,0-3,0.3-4.6,1l-15.5,5.6C405.2,18.7,404.3,16.7,401.4,14.4"/>
		<path class="st0" d="M488.3,14.5c-9,0-31.9,3.2-35.7,18.7c-3.5,14.3,8,27.6,26.8,27.6c4.6,0,9.7-0.8,15.1-2.6l8-13.4
			c-3,2-9.4,3.9-15.2,3.9c-4,0-7.7-1-9.6-3.5l26.3-12l-15.3-18.7C488.6,14.5,488.5,14.5,488.3,14.5 M471.7,38.7
			c-2.6-5.6-0.8-11.4,4-12.8l6.5,7.8L471.7,38.7z"/>
	</g>
	<g>
		<path class="st0" d="M147.4,96.7c-2.4-1.6-3.4-1.9-4.4-1.9s-1.9,0.3-4.4,1.9c-9.3,6.1-19.6,16.4-27,27.6h7.7
			c1.6-2.2,3.2-4.4,4.9-6.4h37.5c1.7,2.1,3.3,4.2,4.9,6.4h7.7C166.9,113.1,156.7,102.8,147.4,96.7z M128.7,112.9
			c3.7-3.9,7.7-7.4,11.8-10.4c1-0.8,1.6-1,2.5-1c0.8,0,1.4,0.3,2.5,1c4.2,3,8.1,6.5,11.8,10.4H128.7z"/>
		<rect x="180.9" y="95" class="st0" width="6.7" height="29.3"/>
		<path class="st0" d="M251.9,104.7c0-5.6-4.5-9.6-11-9.6h-36.6h-3.9h-2.8v29.3h6.7v-10H238c3,3,5.2,6,7.9,10h7.6
			c-2.9-4.4-5.3-7.5-8.1-10.8C249.4,112.2,251.9,108.9,251.9,104.7z M204.3,100.5h36.2c2.7,0,4.6,1.5,4.6,4.2s-2,4.2-4.6,4.2h-36.2
			V100.5z"/>
		<rect x="261.3" y="95" class="st0" width="6.7" height="29.3"/>
		<path class="st0" d="M319.1,95h-34.3h-4.2h-2.5v29.3h2.5h4.2h34.3c9.4,0,15.8-6.2,15.8-14.7S328.5,95,319.1,95z M318.6,118.9
			h-33.8v-18.4h33.8c5.7,0,9.6,3.6,9.6,9.2S324.2,118.9,318.6,118.9z"/>
		<path class="st0" d="M352.8,100.5h39.5V95h-40.5c-5.6,0-9.4,3.3-9.4,8c0,2.9,1.4,5.2,3.8,6.6c-2.4,1.4-3.8,3.8-3.8,6.6
			c0,4.7,3.8,8,9.4,8h40.5v-5.4h-39.4c-2.3,0-3.7-1.2-3.7-3.3s1.4-3.3,3.7-3.3h39.4v-5.4h-39.5c-2.2,0-3.6-1.2-3.6-3.2
			C349.3,101.7,350.6,100.5,352.8,100.5z"/>
	</g>
</g>
</svg>
